<svg xmlns="http://www.w3.org/2000/svg" fill="none" viewBox="0 0 33 32"><title>Butterfly</title><desc>Butterfly design element</desc><path fill="#44ABA5"  d="M12.876 21.491 16.4 9.555c-.716-.23-2.068 2.09-2.068 2.09s-.567-2.6-3.291-6.152C8.039 1.604 5.129-.822 3.01.65.823 2.161.023 7.624.96 9.755c.851 1.933 2.622 2.718 2.622 2.718s-1.566.882-2.612 3.144c-1.29 2.797-.798 3.883.217 5.95 1.042 2.073.15.473-.435 2.75-.416 1.607.11 2.185 1.036 1.21 2.277-2.405-.351-.874 2.573-.655 1.31.08 3.313-.706 4.915-2.497 1.603-1.79 2.19-3.779 3.1-4.7.946-.942-.136 3.609.499 3.816ZM32.619 8.972c-.99-2.346-4.778-1.802-9.44-.068-4.243 1.594-6.141 3.502-6.141 3.502s.128-2.693-.612-2.843l-3.523 11.935c.643.181 2.215-4.26 2.483-3.007.269 1.253-.679 2.596-.298 4.943.38 2.348 1.666 4.088 2.801 4.665 2.596 1.333 1.557-.654 2.2 2.572.253 1.306 1.022 1.063 1.537-.487.754-2.259-.854-1.332 1.132-2.555 1.986-1.223 2.995-1.887 3.427-4.925.349-2.459-.497-4.017-.497-4.017s1.935.227 3.702-.942c1.956-1.317 4.257-6.358 3.229-8.773Z"/></svg>