<svg xmlns="http://www.w3.org/2000/svg" viewBox="0 0 563 134"><style>:root { --primary : #CE0D5A; }</style><g style="fill:var(--primary, #118804)" fill-rule="evenodd"><title>Logo</title><desc>Brand Logo for The Pioneer Woman</desc><path d="M246.115 69.073c-.742 0-1.259.575-1.582 1.004-5.03 6.773-8.645 7.197-11.9 7.197-1.536 0-2.107-.503-2.107-1.862 0-1.296.666-2.991 1.808-4.926 5.053-1.026 8.586-2.11 10.804-3.303 2.544-1.368 3.834-3.113 3.834-5.21 0-1.032-.443-2.526-1.277-3.224-.797-.67-1.75-1.011-2.84-1.011-2.109 0-4.71.858-7.955 2.626-3.98 2.175-6.683 5.19-8.014 7.794l-.67.938c-4.725 6.614-6.9 7.96-7.974 7.96-.166 0-.309-.037-.428-.087 0-.095.086-1.07 3.197-5.661 2.172-3.215 3.23-5.675 3.23-7.501 0-1.476-.44-2.764-1.306-3.812-.924-1.12-2.037-1.687-3.307-1.687-.974 0-1.98.5-2.918 1.309-.243.145-.484.279-.736.46l10.638-17.456s-1.704-.037-2.937-.254c-1.33-.235-2.757-1.016-2.757-1.016l-22.55 38.89 2.24-.355c.79-.117 1.323-.183 1.832-.183.485 0 .947.059 2.183.299l.483-.502.095-.167c3.977-7.152 7.126-12.056 9.364-14.587 2.527-2.867 3.928-3.543 4.77-3.543.137 0 .264.022.373.05-.004.096-.178 1.085-3.92 6.592-1.896 2.823-2.817 5.093-2.817 6.948 0 1.469.452 2.728 1.336 3.718.913 1.04 2.106 1.564 3.542 1.564 1.748 0 3.841-1.46 6.2-4.448a41.815 41.815 0 0 0 1.676-1.944c.162 1.68.768 3.14 1.87 4.304 1.302 1.38 2.94 2.088 4.866 2.088 3.806 0 7.51-.016 12.553-6.237l1.491-1.862c.684-.881.858-1.164.858-1.586 0-.612-.385-1.128-1.248-1.317zM233.786 67.1c1.412-1.771 2.853-3.284 4.282-4.498 1.934-1.643 3.498-2.476 4.65-2.476.291 0 .515.055.667.162l.088.062.06.09c.061.092.135.259.135.533 0 1.283-1.124 2.692-3.34 4.19-1.392.938-3.059 1.763-5.179 2.556l-.165.066c-.075.027-.146.059-.216.09-.11.048-.22.095-.34.136l-1.875.635 1.233-1.546z"/><path d="M193.865 30.723c-.91-.352-3.467-1.051-5.512-1.051-5.231 0-10.28 2.394-15.005 7.108-2.921 2.925-3.154 3.616-3.103 4.546.193.598.717.983 1.33.983.678 0 1.132-.545 1.533-1.091 2.096-2.714 4.543-4.882 7.278-6.446 2.718-1.542 5.42-2.328 8.036-2.328 1.973 0 3.534.537 4.936 1.26.349.235.74.4 1.054.695a30.025 30.025 0 0 0-9.304 4.739c-3.263 2.458-5.958 5.369-8.017 8.657-2.088 3.354-3.151 6.482-3.151 9.312 0 2.197.678 4.023 2.013 5.435 1.349 1.44 3.062 2.167 5.245 2.167h.003c4.333-.08 8.353-2.11 11.629-5.856 4.904-5.617 7.486-14.303 6.308-22.102l1.437-.06c3.016 0 15.25 2.04 15.25 2.04.299.063.65.142.927.198-5.787 3.488-11.41 9.623-16.708 18.294-3.595 5.908-6.551 10.186-8.795 12.725-4.661 5.296-9.971 7.98-15.788 7.98-2.58 0-4.76-.59-6.483-1.746-.88-.585-1.48-1.197-2.028-1.772-.104-.181-.223-.358-.297-.546.367.17.762.325 1.22.325 1.012 0 1.989-.436 2.623-1.157.636-.727.96-1.615.96-2.626 0-2.168-1.254-3.463-3.353-3.463-1.26 0-2.346.545-3.235 1.607-.833 1.012-1.26 2.227-1.26 3.616 0 2.62 1.23 4.766 3.657 6.38 2.285 1.522 5.228 2.292 8.749 2.292 6.425 0 12.702-2.233 18.669-6.65 2.28-1.73 4.094-3.542 5.395-5.375 1.29-1.805 3.255-5.311 6.008-10.724 2.649-5.195 5.152-9.262 7.44-12.084 2.164-2.663 4.579-4.721 7.002-6.104 5.277.968 9.777 1.455 13.382 1.455 3.696 0 6.887-.458 9.484-1.353 3.012-1.047 4.474-2.423 4.474-4.212 0-4.082-6.525-4.082-8.673-4.082-4.954 0-10.181 1.17-15.375 3.463-6.216-1.28-10.193-2.052-11.82-2.306-1.585-.24-3.36-.356-5.278-.356-2.928 0-6.221.19-8.487.97-2.16-1.95-3.46-2.405-4.37-2.757m45.469 3.859c1.84 0 3.372.21 4.554.634 1 .348 1.193.64 1.21.64-.023.095-.308.436-1.297.822-1.247.48-2.885.728-4.871.728-2.415 0-5.402-.356-9.618-1.164l-.625.153-.025-.005c3.48-1.173 7.062-1.808 10.672-1.808M191.48 55.026c-3.5 4.496-7.05 6.774-10.56 6.774-1.177 0-2.15-.438-2.964-1.332-.841-.917-1.248-2.044-1.248-3.435 0-4.001 2.135-8.177 6.344-12.411 3.834-3.856 8.003-6.33 12.4-7.362 1.336 7.617-2.778 16.23-3.972 17.766M381.848 89.24c-7.004 19.366-13.863 32.54-20.379 39.154-2.637 2.634-2.637 2.634-2.595 3.53.207.732.826 1.176 1.655 1.176.666 0 1.703-.328 7.01-4.246 10.96-8.072 26.35-24.104 45.744-47.656 15.97-19.429 27.473-32.634 34.185-39.24 6.46-6.412 14.607-12.777 24.225-18.916C488.49 12.338 502.983 6.91 514.774 6.91c2.393 0 4.414.108 6.147.32h1.103c3.366 0 3.626-2.417 3.626-3.156 0-3.397-5.102-3.397-6.78-3.397-11.13 0-24.316 4.238-39.189 12.605-10.85 6.061-20.757 13.05-29.44 20.762-8.67 7.696-18.63 18.331-29.6 31.621-21.094 25.538-34.115 40.901-38.703 45.645-.304.32-.596.624-.876.92a98.96 98.96 0 0 0 8.16-13.026c4.211-8.227 8.96-20.326 14.106-35.969 4.63-14.203 8.144-24.034 10.442-29.207 1.99-4.44 4.64-8.889 7.86-13.189.537-.624.76-1.075.76-1.558 0-.982-.698-1.699-1.659-1.699-1.332 0-3.677 1.2-11.752 9.918-5.863 6.341-11.934 13.641-18.047 21.696-16.766 22.074-30.883 39.55-42.047 52.53a340.586 340.586 0 0 1-6.028 6.602c5.595-6.664 10.784-13.848 15.274-21.604 8.366-14.437 12.61-26.94 12.61-37.146 0-9.59-2.896-17.793-8.604-24.384-5.752-6.645-12.962-10.019-21.422-10.019-14.12 0-29.005 7.51-44.239 22.305-6.786 6.512-12.212 13.86-16.124 21.837-3.92 8-5.913 15.806-5.913 23.2 0 7.984 2.257 14.708 6.704 19.974 4.496 5.337 10.3 8.041 17.256 8.041 11.745 0 22.882-7.058 33.111-20.973 9.141-12.55 13.778-24.026 13.778-34.114 0-4.62-1.193-8.406-3.542-11.243-2.407-2.889-5.644-4.362-9.62-4.362-3.426 0-6.495 1.145-9.127 3.397-2.68 2.298-4.04 5.056-4.04 8.195 0 4.168 2.158 6.458 6.072 6.458 1.996 0 3.752-.7 5.23-2.088 1.497-1.417 2.262-3.124 2.262-5.079 0-3.31-1.726-5.212-4.733-5.212-.359 0-1 .147-1.784.483-.15.021-.29.041-.46.067.277-.282.708-.637 1.608-1.102 1.605-.827 3.276-1.247 4.971-1.247 2.801 0 4.986 1.013 6.685 3.108 1.73 2.135 2.606 5.033 2.606 8.625 0 7.977-3.409 17.255-10.128 27.563-10.327 15.798-21.339 23.807-32.729 23.807-5.316 0-9.5-1.799-12.784-5.508-3.28-3.708-4.943-8.663-4.943-14.74 0-15.066 6.673-30.257 19.835-45.154 13.132-14.84 26.473-22.366 39.653-22.366 6.062 0 10.895 2.126 14.371 6.318 3.532 4.254 5.32 10.135 5.32 17.482 0 11.008-4.714 26.012-14.014 44.593-9.323 18.62-19.182 32.752-29.293 42-.978.817-1.446 1.331-1.402 2.321.117.412.424.966 1.655 1.34 1.235 0 3.888-1.177 14.841-9.715 15.044-11.85 32.744-31.505 52.61-58.413 6.2-8.17 11.192-14.742 14.895-20.019.747-.975 1.427-1.857 2.095-2.724-1.503 2.714-2.99 5.522-4.409 8.61-3.697 8.017-8.792 20.933-15.14 38.4"/><path d="M539.215 108.334c-.698 1.44-1.05 3.023-1.05 4.713 0 2.002.615 3.725 1.83 5.103 1.261 1.442 2.843 2.174 4.697 2.174 2.677 0 6.057-2.478 10.331-7.58 7.58-9.053 7.58-9.878 7.58-10.542 0-.848-.639-1.487-1.489-1.487-.634 0-1.184.39-1.484 1.02-9.598 13.953-13.329 15.457-14.489 15.457-.72 0-.878-.156-.878-.872 0-.484.441-2.267 4.527-8.406 3.248-4.878 4.831-8.462 4.831-10.97 0-2.056-.602-3.817-1.784-5.242-1.212-1.45-2.778-2.221-4.539-2.221-2.157 0-4.519 1.153-6.825 3.326-.809.768-1.726 1.897-2.596 3.244-.292.342-.572.66-.88 1.039.056-.394.118-.79.118-1.151 0-1.706-.489-3.201-1.456-4.456-1.043-1.34-2.345-2.017-3.864-2.017-1.616 0-4.222 1.285-11.328 10.812 0 0-7.288 9.654-10.186 12.668-3.79 3.942-3.632 4.246-3.986 4.246-.418 0-.777 0-.777-1.177 0-.794.577-3.108 4.457-9.605l5.831-10.204 3.838-6.35-.229.037.182-.32-1.925.313c-1.366.226-2.485.335-3.33.335-.678 0-1.484-.11-2.39-.32l-.897-.202-.102.194-.308 1.198-.349.66c-.614-1.464-1.924-2.285-3.9-2.285-2.672 0-6.019 1.137-10.23 3.474-5.386 2.937-8.846 6.209-11.12 9.7l-1.71 2.352c-7.86 11.008-9.792 12.2-10.793 12.2-.724 0-.88-.156-.88-.872 0-.577.292-1.98 2.262-4.878 2.007-2.983 4.15-6.201 4.364-6.497 1.747-2.952 2.632-5.61 2.632-7.9 0-2.04-.588-3.81-1.74-5.266-1.228-1.535-2.766-2.313-4.578-2.313-2.27 0-5.066 1.829-8.196 5.5a53.562 53.562 0 0 0-2.37 2.636c.038-.327.08-.654.08-.962 0-1.97-.545-3.661-1.62-5.017-1.14-1.433-2.622-2.157-4.402-2.157-2.11 0-4.583 1.656-7.366 5.096a49.27 49.27 0 0 0-2.072 2.389c.054-.384.113-.77.113-1.113 0-1.66-.472-3.132-1.402-4.362-1.009-1.333-2.259-2.01-3.717-2.01-2.072 0-4.592 1.947-7.934 6.123-2.342 2.945-7.404 9.523-9.012 11.145-1.012 1.022-2.778 1.984-3.604 2.014-.233.009-.497.086-.71.057 3.648-5.146 5.515-9.697 5.515-13.52 0-3.755-1.959-5.82-5.516-5.82-3.36 0-7.436 1.738-12.46 5.306-7.074 5.009-10.663 10.362-10.663 15.908 0 2.602.82 4.878 2.428 6.739 1.651 1.924 3.693 2.906 6.062 2.906 4.212 0 8.48-3.046 12.705-9.216a7.891 7.891 0 0 0 2.552.413c2.832 0 4.522-1.418 7.74-4.628 1.443-1.433 3.226-3.99 3.226-3.99 6.147-8.561 8.453-10.033 9.088-10.033.072 0 .125.016.154.047 0 .724-.704 3.529-7.256 13.805l-4.85 8.167-3.339 5.232 2.155-.265c.896-.125 1.995-.187 3.256-.187 1.147 0 2.074.062 3.405.289l.507-.53.101-.18c4.09-7.51 8.25-13.952 12.367-19.15 5.356-6.768 7.472-7.5 8.13-7.5.358 0 .67 0 .67 1.074 0 .655-.663 3.242-6.809 13.05l-4.828 8.195-3.24 5.204 2.093-.265c.896-.125 2.03-.187 3.358-.187 1.094 0 1.947.062 3.154.304l.526-.506.105-.18c13.754-23.224 19.547-26.69 21.775-26.69.72 0 .876.156.876.873 0 .444-.39 2.049-4.016 7.229-3.319 4.776-3.618 5.282-3.723 5.454-1.374 2.36-2.077 4.612-2.077 6.692 0 2.135.608 3.91 1.8 5.298 1.238 1.449 2.847 2.18 4.783 2.18 2.976 0 5.537-3.07 10.192-9.24 0 2.58.27 4.762 1.641 6.498 1.42 1.792 3.245 2.735 5.291 2.735 2.032 0 4.144-.958 6.103-2.774.918-.852 1.986-2.187 3.043-3.823.36-.442.701-.841 1.092-1.343-.016.225-.037.453-.037.67 0 2.027.584 3.74 1.741 5.12 1.204 1.433 2.778 2.158 4.686 2.158 2.68 0 4.431-2.486 8.666-7.58 3.945-4.674 7.47-9.52 7.673-9.816 6.084-8.72 8.36-10.081 9.034-10.081.1 0 .167.03.201.07 0 .7-.634 3.34-6.504 12.698l-5.289 8.908-3.493 5.504 2.086-.163a23.508 23.508 0 0 1 3.166-.195c.324 0 1.278.062 3.448.242l.467-.483.09-.163c12.363-22.04 18.572-26.667 21.607-26.667.883 0 .978.264.978.872 0 .304-.277 1.714-3.869 7.027-2.676 3.918-4.293 6.482-4.943 7.837m-119.937-8.125c-1.46 1.939-2.2 3.895-2.2 5.796 0 1.223.431 2.407 1.276 3.178-3.875 5.252-7.408 7.908-10.506 7.908-1.552 0-2.129-.616-2.129-2.283 0-3.708 2.138-8.43 6.352-14.031 4.138-5.492 7.577-8.281 10.222-8.281 1.204 0 2.485.226 2.485 2.89 0 .61-.02 1.18.1 1.637-.015.082-.01.174-.028.256l-.796-.163c-1.628 0-3.236 1.044-4.776 3.093m81.537 5.944c-7.402 9.963-10.21 11.039-11.076 11.039-.875 0-1.733-.156-1.733-2.08 0-3.42 2.44-8.094 7.253-13.883 4.753-5.726 8.535-8.631 11.24-8.631.667 0 1.074.085 1.074 1.277 0 1.425-1.173 4.713-6.758 12.278m-231.823-5.044c-.663 0-1.22.483-2.225 1.613-2.848 3.989-5.408 6.007-7.608 6.007-.647 0-1.99 0-1.99-3.04 0-.817.194-1.907 1.239-3.614l2.846-1.776c5.143-3.288 7.538-5.797 7.538-7.892 0-1.573-1.052-2.547-2.745-2.547-1.867 0-3.818 1.114-5.972 3.397-1.636 1.736-3.063 3.832-4.196 6.597.42-1.316.635-2.523.635-3.621 0-5.267-2.835-6.374-5.215-6.374-1.664 0-4.332 1.287-11.498 10.837l-1.353 1.746c-7.417 9.979-14.707 15.043-19.593 15.043-2.454 0-3.497-.936-3.497-3.14 0-2.001 1.017-4.588 2.839-7.564 7.269-1.473 12.57-3.087 15.756-4.8 3.553-1.9 5.357-4.33 5.357-7.213 0-1.403-.574-2.594-1.707-3.544-1.075-.904-2.372-1.365-3.86-1.365-3.006 0-6.47.504-11.124 3.043-5.66 3.093-8.7 7.302-11.714 10.996-6.945 9.014-14.496 13.587-19.105 13.587-2.454 0-3.497-.936-3.497-3.14 0-2.001 1.017-4.588 2.84-7.564 7.267-1.473 12.569-3.087 15.755-4.8 3.553-1.907 5.356-4.33 5.356-7.213 0-1.403-.576-2.594-1.71-3.544-1.074-.904-2.378-1.222-3.855-1.365-3.101-.297-5.51.09-10.481 2.577-6.373 3.186-8.312 6.213-11.47 10.305-8.13 11.328-11.057 14.846-12.086 14.846-.724 0-.88-.157-.88-.882 0-.483.44-2.258 4.526-8.397 3.253-4.877 4.835-8.469 4.835-10.97 0-2.048-.601-3.81-1.785-5.242-1.21-1.45-2.781-2.222-4.542-2.222-2.16 0-4.517 1.154-6.82 3.328-.821.778-1.735 1.9-2.6 3.24-.291.34-.57.657-.877 1.033.057-.392.119-.787.119-1.141 0-1.715-.49-3.21-1.46-4.457-1.036-1.34-2.334-2.017-3.86-2.017-1.617 0-4.227 1.285-11.333 10.814l-.676.903c-.257.201-5.156 7.094-8.846 7.563-.235.008-.5.085-.717.056 3.65-5.153 5.515-9.703 5.515-13.517 0-3.755-1.96-5.82-5.511-5.82-3.366 0-7.441 1.739-12.465 5.306-2.961 2.096-5.387 4.346-7.447 6.95-9.867 13.968-13.638 15.472-14.802 15.472-1.017 0-1.181-.32-1.181-1.076 0-.858.398-2.54 2.289-5.68l7.422-12.743 4.747-7.8-.225.032.184-.312-1.885.273c-1.578.218-2.806.334-3.658.334-.52 0-1.258-.108-2.201-.32l-.846-.195-8.292 14.087c-2.448 4.183-3.635 7.276-3.635 9.457 0 1.986.642 3.67 1.908 5.01 1.289 1.372 2.91 2.064 4.819 2.064 3.236 0 7.382-3.273 12.142-9.645 0 2.595.817 4.862 2.426 6.74 1.664 1.924 3.705 2.905 6.062 2.905 4.217 0 8.479-3.053 12.705-9.225a7.652 7.652 0 0 0 2.552.413c2.796 0 4.853-1.604 8.028-4.76 1.355-1.347 3.128-3.49 3.36-3.825 6.082-8.716 8.357-10.081 9.035-10.081.102 0 .167.033.202.07 0 .701-.634 3.335-6.51 12.7l-5.21 8.785-3.42 5.413-.241.315 2.172-.272a25.42 25.42 0 0 1 3.175-.188c.323 0 1.402.063 3.573.242l.432-.656c12.363-22.03 18.572-26.657 21.607-26.657.885 0 .973.264.973.871 0 .305-.277 1.715-3.87 7.028-2.68 3.918-4.293 6.481-4.937 7.837-.698 1.434-1.052 3.016-1.052 4.714 0 1.994.616 3.716 1.827 5.103 1.257 1.44 2.84 2.175 4.702 2.173 5.438-.007 9.477-9.166 9.477-9.166.138-.168.293-.352.424-.513.089 2.67.957 4.957 2.664 6.757 1.815 1.94 4.098 2.922 6.78 2.922 4.793 0 11.85-3.42 17.564-10.097 0 2.852.91 5.267 2.71 7.175 1.824 1.94 4.102 2.922 6.782 2.922 5.399 0 12.605-4.356 19.86-13.314l2.172-2.72c.509-.644.758-1.02 1.004-1.37 5.92-8.663 8.36-10.128 9.095-10.128.054 0 .099.008.133.023 0 .623-.583 3.038-6.01 11.858l-5.592 9.617-3.335 5.409-.18.29s4.794-.32 4.935-.32c.289 0 1.386.148 3.68.32l.465-.709c3.239-5.547 5.526-9.233 6.8-10.962.56-.77 1.16-1.573 1.72-2.427.256-.278.45-.553.724-.834-.015.218-.036.444-.036.644 0 5.073 3.51 5.618 5.017 5.618 2.589 0 5.313-1.56 8.083-4.628 3.338-3.622 3.338-3.965 3.338-4.487 0-.865-.627-1.49-1.487-1.49zm-48.643 1.695c2.198-2.805 4.4-5.15 6.545-6.975 2.807-2.391 5.055-3.423 5.303-3.533 1.015-.452 1.84-.434 2.323.05.549.55.772 1.32.418 2.082-1.907 4.106-9.381 7.383-11.62 8.47l-.658.264c-.53.215-1.06.43-1.63.616l-1.942.634 1.26-1.609zm-27.137 0c2.198-2.805 4.4-5.15 6.545-6.975 2.807-2.391 5.055-3.423 5.302-3.533 1.016-.452 1.842-.434 2.324.05.549.55.772 1.32.418 2.082-1.907 4.106-9.381 7.383-11.62 8.47l-.658.264c-.53.215-1.06.43-1.63.616l-1.942.634 1.26-1.609zm-58.584-2.201c-1.462 1.94-2.202 3.895-2.202 5.797 0 1.221.433 2.406 1.278 3.177-3.88 5.25-7.412 7.907-10.506 7.907-1.557 0-2.134-.615-2.134-2.281 0-3.71 2.139-8.43 6.354-14.032 4.129-5.493 7.568-8.282 10.22-8.282 1.204 0 2.485.227 2.485 2.892 0 .634-.023 1.204.1 1.648-.013.078-.012.162-.028.237l-.796-.156c-1.651 0-3.214 1.013-4.771 3.093z"/><path d="M197.068 25.564c1.746-1.746-2.196-6.408-4.281-8.578-4.952-4.861-11.569-7.323-19.663-7.323-9.98 0-20.438 3.312-30.769 9.84-11.713-7.517-26.293-11.327-43.334-11.327-22.699 0-43.705 6.942-62.438 20.637C17.734 42.586 8.178 58.09 8.178 74.902c0 8.445 2.571 15.301 7.643 20.373 5.064 5.07 11.889 7.642 20.284 7.642 12.654 0 25.622-5.929 38.543-17.614 12.96-11.71 19.531-23.528 19.531-35.129 0-10.01-5.458-15.082-16.22-15.082-10.732 0-21.315 4.441-31.45 13.205-10.187 8.819-15.352 18.058-15.352 27.446 0 3.919 1.056 7.292 3.136 10.011 2.162 2.836 4.868 4.278 8.052 4.278 2.48 0 2.85-1.185 2.85-1.894 0-.46-.193-1.964-2.68-1.964-1.537 0-2.863-.622-4.047-1.9-1.207-1.294-1.792-2.798-1.792-4.604 0-8.126 4.893-17.015 14.537-26.434 9.665-9.419 18.78-14.194 27.096-14.194 7.962 0 11.834 3.755 11.834 11.475 0 10.206-6.175 20.934-18.346 31.895-12.216 10.985-24.166 16.554-35.522 16.554-6.824 0-12.29-1.83-16.238-5.452-3.92-3.592-5.907-8.531-5.907-14.678 0-12.481 7.41-26.044 22.02-40.316 17.864-17.458 39.163-26.308 63.306-26.308 14.683 0 26.269 2.922 34.903 8.094 1.125.708 2.36 1.321 3.379 2.121-5.456 3.953-12.016 10.193-19.501 18.562-7.97 8.897-15.005 17.911-20.907 26.8-11.709 17.848-19.403 29.238-22.854 33.842-3.154 4.246-7.015 8.453-11.472 12.504-10.096 9.185-21.501 13.844-33.892 13.844-6.949 0-12.769-1.55-17.295-4.604-4.219-2.844-6.376-6.256-6.582-10.408.198.388.447.732.738 1.036.96.989 2.362 1.495 4.177 1.495 2.1 0 3.887-.841 5.314-2.508 1.379-1.621 2.08-3.584 2.08-5.843 0-5.889-3.545-7.128-6.522-7.128-2.805 0-5.247 1.231-7.253 3.669-1.948 2.361-2.937 5.204-2.937 8.445 0 5.75 2.792 10.586 8.293 14.382 5.349 3.708 12.13 5.585 20.163 5.585 9.703 0 20.847-3.038 33.125-9.037 10.401-5.166 18.604-11.055 24.384-17.482 5.768-6.42 12.181-16.983 19.064-31.388 11.02-23.061 22.791-39.506 34.593-48.917 4.309 4.97 6.489 10.642 6.489 16.859 0 7.603-2.301 14.233-6.84 19.686-4.478 5.399-9.913 8.134-16.15 8.134-3.449 0-6.928-.99-10.337-2.945-.845-.468-1.453-.678-1.97-.678-.865 0-1.543.507-1.882 1.714 0 1.76 1.854 3.163 6.204 4.69 3.725 1.293 7.261 1.955 10.517 1.955 8.315 0 15.664-2.898 21.846-8.616 6.22-5.742 9.376-12.589 9.376-20.356 0-8.044-3.672-15.349-10.592-21.527-.663-.636-1.207-1.301-1.936-1.922 9.621-5.744 19.082-8.664 28.12-8.664 6.797 0 12.337 2.126 16.455 6.325.582.665 2.346 2.753 3.39 4.121.339.444.756.936 1.332 1.368 1.111.833 2.016.72 2.592.144"/><path d="M112.689 80.224c-1.27 1.246-1.915 2.609-1.915 4.034 0 2.167 1.29 3.458 3.45 3.458 1.51 0 2.89-.638 4.098-1.898 1.207-1.24 1.818-2.626 1.818-4.121 0-2.097-1.252-3.35-3.345-3.35-1.461 0-2.84.63-4.106 1.877"/></g></svg>